<?xml version="1.0" encoding="iso-8859-1"?>
<!-- Generator: Adobe Illustrator 16.0.4, SVG Export Plug-In . SVG Version: 6.00 Build 0)  -->
<!DOCTYPE svg PUBLIC "-//W3C//DTD SVG 1.1//EN" "http://www.w3.org/Graphics/SVG/1.1/DTD/svg11.dtd">
<svg version="1.1" id="Capa_1" xmlns="http://www.w3.org/2000/svg" xmlns:xlink="http://www.w3.org/1999/xlink" x="0px" y="0px"
	 width="32.415px" height="20.795px" viewBox="0 0 32.415 20.795" style="enable-background:new 0 0 32.415 20.795;"
	 xml:space="preserve">
<path d="M6.882,20.795L0,13.913h4.268C5.02,6.066,9.732,0.206,15.361,0.206c0.767,0,1.531,0.11,2.273,0.327l1.649,0.48l-1.649,0.479
	c-4.191,1.219-7.473,6.285-8.095,12.42h4.224L6.882,20.795z M2.414,14.913l4.468,4.468l4.468-4.468H8.455l0.04-0.538
	c0.456-6.058,3.264-11.09,7.187-13.162C10.369,0.978,5.805,6.745,5.227,14.45l-0.035,0.462L2.414,14.913L2.414,14.913z
	 M17.053,20.588c-0.766,0-1.529-0.11-2.272-0.327l-1.649-0.48l1.649-0.479c4.192-1.219,7.473-6.285,8.095-12.42H18.65L25.533,0
	l6.882,6.882h-4.269C27.395,14.728,22.682,20.588,17.053,20.588z M16.732,19.581c0.106,0.005,0.214,0.007,0.32,0.007
	c5.209,0,9.566-5.694,10.135-13.245l0.035-0.462h2.776l-4.468-4.468l-4.469,4.468h2.896l-0.04,0.538
	C23.463,12.477,20.655,17.509,16.732,19.581z"/>
<g>
</g>
<g>
</g>
<g>
</g>
<g>
</g>
<g>
</g>
<g>
</g>
<g>
</g>
<g>
</g>
<g>
</g>
<g>
</g>
<g>
</g>
<g>
</g>
<g>
</g>
<g>
</g>
<g>
</g>
</svg>
